<svg width="180" height="180" viewBox="0 0 180 180" fill="none" xmlns="http://www.w3.org/2000/svg">
  <path d="M0 20C0 8.9543 8.95431 0 20 0H160C171.046 0 180 8.95431 180 20V160C180 171.046 171.046 180 160 180H20C8.9543 180 0 171.046 0 160V20Z" fill="#F1F3F4" />
  <path d="M60 115.313L70.1719 50.3439C70.3125 49.3126 71.2969 48.6095 72.3281 48.797C72.8906 48.8908 73.4062 49.2658 73.6875 49.7814L84.1875 69.3751L88.3594 61.4064C88.8281 60.4689 89.9531 60.1408 90.8906 60.6095C91.2187 60.797 91.5 61.0783 91.6875 61.4064L120 115.313H60Z" fill="#FFA000" />
  <path d="M95.1094 90.0002L84.1875 69.3284L60 115.313L95.1094 90.0002Z" fill="#F57C00" />
  <path d="M120 115.313L112.219 67.172C112.031 66.1407 111.094 65.4845 110.062 65.6251C109.688 65.672 109.312 65.8595 109.031 66.1407L60 115.313L87.1406 130.547C88.8281 131.484 90.9375 131.484 92.625 130.547L120 115.313Z" fill="#FFCA28" />
  <path d="M112.266 67.2188C112.078 66.1875 111.141 65.5313 110.109 65.6719C109.734 65.7188 109.359 65.9063 109.078 66.1875L99.3281 75.9375L91.6875 61.3594C91.2187 60.4219 90.0938 60.0938 89.1563 60.5625C88.8281 60.75 88.5469 61.0313 88.3594 61.3594L84.1875 69.3282L73.6875 49.7344C73.2188 48.8438 72.0469 48.4688 71.1563 48.9844C70.6406 49.2657 70.2656 49.7813 70.1719 50.3438L60 115.313H59.9531L60 115.359L60.2813 115.5L99.3281 76.4063L109.078 66.6563C109.828 65.9063 111 65.9063 111.75 66.6563C112.031 66.9375 112.219 67.2657 112.266 67.6875L119.953 115.359L120.047 115.313L112.266 67.2188ZM60.0938 115.219L70.1719 50.8125C70.3125 49.7813 71.2969 49.0782 72.3281 49.2657C72.8906 49.3594 73.4063 49.7344 73.6875 50.25L84.1875 69.8438L88.3594 61.875C88.8281 60.9375 89.9531 60.6094 90.8906 61.0782C91.2188 61.2657 91.5 61.5469 91.6875 61.875L99.1875 76.125L60.0938 115.219Z" fill="white" fill-opacity="0.2" />
  <path opacity="0.2" d="M92.625 130.078C90.9375 131.016 88.8281 131.016 87.1406 130.078L60.0469 114.891L60 115.313L87.1406 130.547C88.8281 131.484 90.9375 131.484 92.625 130.547L120 115.313L119.953 114.891L92.625 130.078Z" fill="#A52714" />
  <path d="M112.266 67.2189C112.078 66.1877 111.141 65.5314 110.109 65.6721C109.734 65.7189 109.359 65.9064 109.078 66.1877L99.3281 75.9377L91.6875 61.3595C91.2187 60.422 90.0937 60.0939 89.1562 60.5627C88.8281 60.7502 88.5469 61.0314 88.3594 61.3595L84.1875 69.3283L73.6875 49.7345C73.2187 48.8439 72.0469 48.4689 71.1562 48.9845C70.6406 49.2658 70.2656 49.7814 70.1719 50.3439L60 115.313L87.1406 130.547C88.8281 131.485 90.9375 131.485 92.625 130.547L120 115.313L112.266 67.2189Z" fill="url(#paint0_linear_13578_227464)" />
  <defs>
    <linearGradient id="paint0_linear_13578_227464" x1="58.3846" y1="63.2686" x2="121.05" y2="125.934" gradientUnits="userSpaceOnUse">
      <stop stop-color="white" stop-opacity="0.1" />
      <stop offset="1" stop-color="white" stop-opacity="0" />
    </linearGradient>
  </defs>
</svg>
